<svg xmlns="http://www.w3.org/2000/svg" xmlns:xlink="http://www.w3.org/1999/xlink" width="200" zoomAndPan="magnify" viewBox="0 0 150 74.999997" height="100" preserveAspectRatio="xMidYMid meet" version="1.0"><defs><g/><clipPath id="id1"><path d="M 31.148438 40 L 32 40 L 32 67.246094 L 31.148438 67.246094 Z M 31.148438 40 " clip-rule="nonzero"/></clipPath><clipPath id="id2"><path d="M 31.148438 26 L 61.886719 26 L 61.886719 54 L 31.148438 54 Z M 31.148438 26 " clip-rule="nonzero"/></clipPath><clipPath id="id3"><path d="M 5.101562 26 L 35.851562 26 L 35.851562 53.238281 L 5.101562 53.238281 Z M 5.101562 26 " clip-rule="nonzero"/></clipPath><clipPath id="id4"><path d="M 35 12 L 35.851562 12 L 35.851562 40 L 35 40 Z M 35 12 " clip-rule="nonzero"/></clipPath></defs><g clip-path="url(#id1)"><path fill="#aabcd0" d="M 21.097656 59.34375 L 21.097656 63.078125 L 4.144531 55.222656 L 4.144531 52.191406 L 21.097656 44.335938 L 21.097656 48.070312 L 8.277344 53.671875 L 8.277344 53.742188 Z M 31.164062 40.1875 L 2.8125 40.1875 C 1.476562 40.1875 0.390625 41.269531 0.390625 42.605469 L 0.390625 64.808594 C 0.390625 66.144531 1.476562 67.226562 2.8125 67.226562 L 23.292969 67.226562 L 31.164062 40.1875 " fill-opacity="1" fill-rule="nonzero"/></g><g clip-path="url(#id2)"><path fill="#01a5b1" d="M 58.140625 41.148438 L 41.1875 48.898438 L 41.1875 45.164062 L 54.289062 39.5625 L 54.289062 39.492188 L 41.1875 33.890625 L 41.1875 30.15625 L 58.140625 37.90625 Z M 39.035156 26.007812 L 31.164062 53.046875 L 59.46875 53.046875 C 60.808594 53.046875 61.890625 51.964844 61.890625 50.628906 L 61.890625 28.425781 C 61.890625 27.089844 60.808594 26.007812 59.46875 26.007812 L 39.035156 26.007812 " fill-opacity="1" fill-rule="nonzero"/></g><g fill="#ffffff" fill-opacity="1"><g transform="translate(78.481787, 43.647235)"><g><path d="M 0.328125 -0.953125 L 0.328125 -4.734375 C 0.328125 -4.972656 0.410156 -5.1875 0.578125 -5.375 C 0.753906 -5.570312 0.957031 -5.671875 1.1875 -5.671875 L 7.5625 -5.671875 C 7.800781 -5.671875 8.015625 -5.570312 8.203125 -5.375 C 8.398438 -5.175781 8.5 -4.960938 8.5 -4.734375 L 8.5 -0.953125 C 8.5 -0.671875 8.40625 -0.441406 8.21875 -0.265625 C 8.03125 -0.0976562 7.8125 -0.015625 7.5625 -0.015625 L 7.203125 -0.015625 L 7.203125 -4.21875 C 7.203125 -4.289062 7.171875 -4.347656 7.109375 -4.390625 C 7.054688 -4.429688 6.984375 -4.453125 6.890625 -4.453125 L 5.296875 -4.453125 C 5.203125 -4.453125 5.128906 -4.429688 5.078125 -4.390625 C 5.023438 -4.347656 5 -4.289062 5 -4.21875 L 5 -0.953125 C 5 -0.671875 4.910156 -0.441406 4.734375 -0.265625 C 4.554688 -0.0976562 4.328125 -0.015625 4.046875 -0.015625 L 3.765625 -0.015625 L 3.765625 -4.21875 C 3.765625 -4.289062 3.734375 -4.347656 3.671875 -4.390625 C 3.617188 -4.429688 3.539062 -4.453125 3.4375 -4.453125 L 1.859375 -4.453125 C 1.765625 -4.453125 1.6875 -4.429688 1.625 -4.390625 C 1.570312 -4.347656 1.546875 -4.289062 1.546875 -4.21875 L 1.546875 -0.015625 L 1.1875 -0.015625 C 0.9375 -0.015625 0.726562 -0.0976562 0.5625 -0.265625 C 0.40625 -0.441406 0.328125 -0.671875 0.328125 -0.953125 Z M 0.328125 -0.953125 "/></g></g></g><g fill="#ffffff" fill-opacity="1"><g transform="translate(87.791166, 43.647235)"><g><path d="M 0.328125 -0.953125 L 0.328125 -4.734375 C 0.328125 -4.984375 0.414062 -5.203125 0.59375 -5.390625 C 0.78125 -5.578125 1.007812 -5.671875 1.28125 -5.671875 L 4.375 -5.671875 C 4.65625 -5.671875 4.882812 -5.578125 5.0625 -5.390625 C 5.238281 -5.203125 5.328125 -4.984375 5.328125 -4.734375 L 5.328125 -0.953125 C 5.328125 -0.671875 5.238281 -0.441406 5.0625 -0.265625 C 4.894531 -0.0976562 4.664062 -0.015625 4.375 -0.015625 L 1.28125 -0.015625 C 0.988281 -0.015625 0.753906 -0.0976562 0.578125 -0.265625 C 0.410156 -0.441406 0.328125 -0.671875 0.328125 -0.953125 Z M 1.546875 -1.453125 C 1.546875 -1.390625 1.578125 -1.320312 1.640625 -1.25 C 1.703125 -1.175781 1.773438 -1.140625 1.859375 -1.140625 L 3.796875 -1.140625 C 3.878906 -1.140625 3.953125 -1.175781 4.015625 -1.25 C 4.078125 -1.320312 4.109375 -1.390625 4.109375 -1.453125 L 4.109375 -4.21875 C 4.109375 -4.289062 4.078125 -4.347656 4.015625 -4.390625 C 3.960938 -4.429688 3.890625 -4.453125 3.796875 -4.453125 L 1.859375 -4.453125 C 1.773438 -4.453125 1.703125 -4.429688 1.640625 -4.390625 C 1.578125 -4.347656 1.546875 -4.289062 1.546875 -4.21875 Z M 1.546875 -1.453125 "/></g></g></g><g fill="#ffffff" fill-opacity="1"><g transform="translate(93.935109, 43.647235)"><g><path d="M 0.328125 -4.453125 L 0.328125 -5.671875 L 0.921875 -5.671875 L 0.921875 -7.265625 L 1.203125 -7.265625 C 1.472656 -7.265625 1.691406 -7.179688 1.859375 -7.015625 C 2.035156 -6.847656 2.125 -6.644531 2.125 -6.40625 L 2.125 -5.671875 L 2.53125 -5.671875 C 2.8125 -5.671875 3.035156 -5.578125 3.203125 -5.390625 C 3.378906 -5.203125 3.46875 -4.984375 3.46875 -4.734375 L 3.46875 -4.453125 L 2.125 -4.453125 L 2.125 -1.453125 C 2.125 -1.390625 2.160156 -1.320312 2.234375 -1.25 C 2.316406 -1.175781 2.390625 -1.140625 2.453125 -1.140625 L 3.46875 -1.140625 L 3.46875 -0.953125 C 3.46875 -0.671875 3.378906 -0.441406 3.203125 -0.265625 C 3.035156 -0.0976562 2.8125 -0.015625 2.53125 -0.015625 L 1.859375 -0.015625 C 1.609375 -0.015625 1.390625 -0.0976562 1.203125 -0.265625 C 1.015625 -0.441406 0.921875 -0.671875 0.921875 -0.953125 L 0.921875 -4.453125 Z M 0.328125 -4.453125 "/></g></g></g><g fill="#ffffff" fill-opacity="1"><g transform="translate(98.222711, 43.647235)"><g><path d="M 0.328125 -0.015625 L 0.328125 -5.671875 L 0.609375 -5.671875 C 0.847656 -5.671875 1.0625 -5.570312 1.25 -5.375 C 1.445312 -5.1875 1.546875 -4.972656 1.546875 -4.734375 L 1.546875 -0.953125 C 1.546875 -0.679688 1.453125 -0.457031 1.265625 -0.28125 C 1.078125 -0.101562 0.859375 -0.015625 0.609375 -0.015625 Z M 0.328125 -5.96875 L 0.328125 -7.265625 L 0.609375 -7.265625 C 0.847656 -7.265625 1.0625 -7.175781 1.25 -7 C 1.445312 -6.832031 1.546875 -6.632812 1.546875 -6.40625 L 1.546875 -5.96875 Z M 0.328125 -5.96875 "/></g></g></g><g fill="#ffffff" fill-opacity="1"><g transform="translate(100.573496, 43.647235)"><g><path d="M 0.328125 -4.65625 C 0.328125 -4.851562 0.382812 -5.035156 0.5 -5.203125 C 0.625 -5.378906 0.785156 -5.507812 0.984375 -5.59375 L 1.21875 -5.59375 L 2.796875 -1.3125 C 3.054688 -2.039062 3.546875 -3.46875 4.265625 -5.59375 L 4.625 -5.59375 C 4.8125 -5.507812 4.957031 -5.375 5.0625 -5.1875 C 5.175781 -5.007812 5.234375 -4.816406 5.234375 -4.609375 C 5.234375 -4.554688 5.226562 -4.476562 5.21875 -4.375 L 3.765625 -0.625 C 3.671875 -0.4375 3.535156 -0.285156 3.359375 -0.171875 C 3.179688 -0.0664062 2.976562 -0.015625 2.75 -0.015625 C 2.5625 -0.015625 2.378906 -0.0703125 2.203125 -0.1875 C 2.035156 -0.300781 1.910156 -0.445312 1.828125 -0.625 L 0.390625 -4.359375 C 0.347656 -4.460938 0.328125 -4.5625 0.328125 -4.65625 Z M 0.328125 -4.65625 "/></g></g></g><g fill="#ffffff" fill-opacity="1"><g transform="translate(106.6155, 43.647235)"><g><path d="M 0.328125 -0.953125 L 0.328125 -4.734375 C 0.328125 -4.972656 0.421875 -5.1875 0.609375 -5.375 C 0.804688 -5.570312 1.023438 -5.671875 1.265625 -5.671875 L 4.453125 -5.671875 C 4.722656 -5.671875 4.945312 -5.578125 5.125 -5.390625 C 5.3125 -5.203125 5.40625 -4.984375 5.40625 -4.734375 L 5.40625 -3.21875 C 5.40625 -2.976562 5.3125 -2.757812 5.125 -2.5625 C 4.945312 -2.375 4.722656 -2.28125 4.453125 -2.28125 L 1.546875 -2.28125 L 1.546875 -1.453125 C 1.546875 -1.390625 1.585938 -1.320312 1.671875 -1.25 C 1.753906 -1.175781 1.84375 -1.140625 1.9375 -1.140625 L 5.40625 -1.140625 L 5.40625 -0.953125 C 5.40625 -0.671875 5.316406 -0.441406 5.140625 -0.265625 C 4.960938 -0.0976562 4.734375 -0.015625 4.453125 -0.015625 L 1.265625 -0.015625 C 1.015625 -0.015625 0.796875 -0.101562 0.609375 -0.28125 C 0.421875 -0.457031 0.328125 -0.679688 0.328125 -0.953125 Z M 1.546875 -3.8125 C 1.546875 -3.71875 1.582031 -3.640625 1.65625 -3.578125 C 1.738281 -3.523438 1.832031 -3.5 1.9375 -3.5 L 3.859375 -3.5 C 3.960938 -3.5 4.039062 -3.523438 4.09375 -3.578125 C 4.15625 -3.640625 4.1875 -3.71875 4.1875 -3.8125 L 4.1875 -4.21875 C 4.1875 -4.28125 4.15625 -4.332031 4.09375 -4.375 C 4.03125 -4.425781 3.953125 -4.453125 3.859375 -4.453125 L 1.9375 -4.453125 C 1.832031 -4.453125 1.738281 -4.425781 1.65625 -4.375 C 1.582031 -4.332031 1.546875 -4.28125 1.546875 -4.21875 Z M 1.546875 -3.8125 "/></g></g></g><g fill="#ffffff" fill-opacity="1"><g transform="translate(112.823823, 43.647235)"><g><path d="M 0.328125 -4.453125 L 0.328125 -5.671875 L 0.921875 -5.671875 L 0.921875 -7.265625 L 1.203125 -7.265625 C 1.472656 -7.265625 1.691406 -7.179688 1.859375 -7.015625 C 2.035156 -6.847656 2.125 -6.644531 2.125 -6.40625 L 2.125 -5.671875 L 2.53125 -5.671875 C 2.8125 -5.671875 3.035156 -5.578125 3.203125 -5.390625 C 3.378906 -5.203125 3.46875 -4.984375 3.46875 -4.734375 L 3.46875 -4.453125 L 2.125 -4.453125 L 2.125 -1.453125 C 2.125 -1.390625 2.160156 -1.320312 2.234375 -1.25 C 2.316406 -1.175781 2.390625 -1.140625 2.453125 -1.140625 L 3.46875 -1.140625 L 3.46875 -0.953125 C 3.46875 -0.671875 3.378906 -0.441406 3.203125 -0.265625 C 3.035156 -0.0976562 2.8125 -0.015625 2.53125 -0.015625 L 1.859375 -0.015625 C 1.609375 -0.015625 1.390625 -0.0976562 1.203125 -0.265625 C 1.015625 -0.441406 0.921875 -0.671875 0.921875 -0.953125 L 0.921875 -4.453125 Z M 0.328125 -4.453125 "/></g></g></g><g fill="#ffffff" fill-opacity="1"><g transform="translate(117.111425, 43.647235)"><g><path d="M 0.328125 -0.953125 L 0.328125 -4.734375 C 0.328125 -4.972656 0.421875 -5.1875 0.609375 -5.375 C 0.804688 -5.570312 1.023438 -5.671875 1.265625 -5.671875 L 4.453125 -5.671875 C 4.722656 -5.671875 4.945312 -5.578125 5.125 -5.390625 C 5.3125 -5.203125 5.40625 -4.984375 5.40625 -4.734375 L 5.40625 -3.21875 C 5.40625 -2.976562 5.3125 -2.757812 5.125 -2.5625 C 4.945312 -2.375 4.722656 -2.28125 4.453125 -2.28125 L 1.546875 -2.28125 L 1.546875 -1.453125 C 1.546875 -1.390625 1.585938 -1.320312 1.671875 -1.25 C 1.753906 -1.175781 1.84375 -1.140625 1.9375 -1.140625 L 5.40625 -1.140625 L 5.40625 -0.953125 C 5.40625 -0.671875 5.316406 -0.441406 5.140625 -0.265625 C 4.960938 -0.0976562 4.734375 -0.015625 4.453125 -0.015625 L 1.265625 -0.015625 C 1.015625 -0.015625 0.796875 -0.101562 0.609375 -0.28125 C 0.421875 -0.457031 0.328125 -0.679688 0.328125 -0.953125 Z M 1.546875 -3.8125 C 1.546875 -3.71875 1.582031 -3.640625 1.65625 -3.578125 C 1.738281 -3.523438 1.832031 -3.5 1.9375 -3.5 L 3.859375 -3.5 C 3.960938 -3.5 4.039062 -3.523438 4.09375 -3.578125 C 4.15625 -3.640625 4.1875 -3.71875 4.1875 -3.8125 L 4.1875 -4.21875 C 4.1875 -4.28125 4.15625 -4.332031 4.09375 -4.375 C 4.03125 -4.425781 3.953125 -4.453125 3.859375 -4.453125 L 1.9375 -4.453125 C 1.832031 -4.453125 1.738281 -4.425781 1.65625 -4.375 C 1.582031 -4.332031 1.546875 -4.28125 1.546875 -4.21875 Z M 1.546875 -3.8125 "/></g></g></g><g fill="#ffffff" fill-opacity="1"><g transform="translate(123.319748, 43.647235)"><g><path d="M 0.328125 -0.953125 L 0.328125 -4.734375 C 0.328125 -4.984375 0.414062 -5.203125 0.59375 -5.390625 C 0.78125 -5.578125 1.007812 -5.671875 1.28125 -5.671875 L 4.375 -5.671875 C 4.65625 -5.671875 4.882812 -5.578125 5.0625 -5.390625 C 5.238281 -5.203125 5.328125 -4.984375 5.328125 -4.734375 L 5.328125 -4.453125 L 1.859375 -4.453125 C 1.773438 -4.453125 1.703125 -4.429688 1.640625 -4.390625 C 1.578125 -4.347656 1.546875 -4.289062 1.546875 -4.21875 L 1.546875 -1.453125 C 1.546875 -1.390625 1.578125 -1.320312 1.640625 -1.25 C 1.703125 -1.175781 1.773438 -1.140625 1.859375 -1.140625 L 5.328125 -1.140625 L 5.328125 -0.953125 C 5.328125 -0.671875 5.238281 -0.441406 5.0625 -0.265625 C 4.894531 -0.0976562 4.664062 -0.015625 4.375 -0.015625 L 1.28125 -0.015625 C 0.988281 -0.015625 0.753906 -0.0976562 0.578125 -0.265625 C 0.410156 -0.441406 0.328125 -0.671875 0.328125 -0.953125 Z M 0.328125 -0.953125 "/></g></g></g><g fill="#ffffff" fill-opacity="1"><g transform="translate(129.46369, 43.647235)"><g><path d="M 0.328125 -0.953125 L 0.328125 -6.90625 C 0.328125 -7.15625 0.414062 -7.375 0.59375 -7.5625 C 0.769531 -7.757812 1 -7.859375 1.28125 -7.859375 L 1.546875 -7.859375 L 1.546875 -5.671875 L 4.296875 -5.671875 C 4.535156 -5.671875 4.753906 -5.570312 4.953125 -5.375 C 5.148438 -5.1875 5.25 -4.972656 5.25 -4.734375 L 5.25 -0.953125 C 5.25 -0.679688 5.148438 -0.457031 4.953125 -0.28125 C 4.765625 -0.101562 4.546875 -0.015625 4.296875 -0.015625 L 4.03125 -0.015625 L 4.03125 -4.21875 C 4.03125 -4.28125 4 -4.332031 3.9375 -4.375 C 3.875 -4.425781 3.800781 -4.453125 3.71875 -4.453125 L 1.859375 -4.453125 C 1.773438 -4.453125 1.703125 -4.425781 1.640625 -4.375 C 1.578125 -4.332031 1.546875 -4.28125 1.546875 -4.21875 L 1.546875 -0.015625 L 1.28125 -0.015625 C 0.988281 -0.015625 0.753906 -0.0976562 0.578125 -0.265625 C 0.410156 -0.441406 0.328125 -0.671875 0.328125 -0.953125 Z M 0.328125 -0.953125 "/></g></g></g><g clip-path="url(#id3)"><path fill="#aabcd0" d="M 25.808594 45.335938 L 25.808594 49.070312 L 8.859375 41.214844 L 8.859375 38.183594 L 25.808594 30.328125 L 25.808594 34.0625 L 12.988281 39.664062 L 12.988281 39.734375 Z M 35.878906 26.179688 L 7.527344 26.179688 C 6.191406 26.179688 5.105469 27.261719 5.105469 28.597656 L 5.105469 50.804688 C 5.105469 52.136719 6.191406 53.21875 7.527344 53.21875 L 28.007812 53.21875 L 35.878906 26.179688 " fill-opacity="1" fill-rule="nonzero"/></g><g clip-path="url(#id4)"><path fill="#01a5b1" d="M 62.851562 27.140625 L 45.902344 34.890625 L 45.902344 31.15625 L 59.003906 25.554688 L 59.003906 25.484375 L 45.902344 19.882812 L 45.902344 16.148438 L 62.851562 23.898438 Z M 43.75 12 L 35.878906 39.039062 L 64.183594 39.039062 C 65.519531 39.039062 66.605469 37.957031 66.605469 36.621094 L 66.605469 14.417969 C 66.605469 13.082031 65.519531 12 64.183594 12 L 43.75 12 " fill-opacity="1" fill-rule="nonzero"/></g></svg>